<svg width="256" height="256" viewBox="0 0 256 256" fill="none" xmlns="http://www.w3.org/2000/svg">
<rect width="256" height="256" fill="#4D6BFE"/>
<path d="M225.896 66.3338C223.779 65.3017 222.862 67.2744 221.629 68.2816C221.204 68.6062 220.846 69.0308 220.487 69.4137C217.387 72.7182 213.771 74.8824 209.046 74.6244C202.138 74.2415 196.238 76.4057 191.021 81.6829C189.913 75.1737 186.23 71.2948 180.63 68.7977C177.697 67.4992 174.73 66.209 172.672 63.3872C171.238 61.3812 170.847 59.1421 170.13 56.9446C169.672 55.6128 169.213 54.256 167.688 54.0313C166.022 53.7732 165.372 55.1633 164.722 56.3286C162.114 61.0899 161.105 66.3338 161.205 71.6444C161.43 83.5974 166.48 93.1198 176.522 99.8871C177.663 100.661 177.955 101.444 177.597 102.576C176.913 104.906 176.097 107.17 175.38 109.509C174.922 110.999 174.238 111.316 172.638 110.675C167.232 108.354 162.322 105.02 158.172 100.853C151.03 93.9606 144.581 86.3526 136.531 80.3928C134.666 79.0161 132.75 77.7084 130.789 76.4722C122.581 68.5064 131.873 61.9639 134.022 61.1897C136.272 60.374 134.797 57.5939 127.531 57.6271C120.264 57.6604 113.615 60.0827 105.14 63.3206C103.88 63.8027 102.585 64.184 101.265 64.461C93.3452 62.9705 85.2455 62.6842 77.2403 63.612C61.5322 65.36 48.9908 72.7848 39.766 85.4453C28.6829 100.661 26.0746 117.958 29.2662 135.987C32.6245 154.999 42.341 170.739 57.2657 183.042C72.7487 195.802 90.5733 202.053 110.915 200.855C123.264 200.147 137.022 198.491 152.53 185.373C156.447 187.32 160.547 188.094 167.363 188.677C172.613 189.168 177.663 188.427 181.572 187.612C187.696 186.313 187.271 180.645 185.063 179.613C167.105 171.255 171.047 174.66 167.455 171.905C176.588 161.117 190.338 149.913 195.721 113.613C196.138 110.725 195.78 108.91 195.721 106.579C195.688 105.164 196.013 104.607 197.638 104.449C202.146 103.981 206.52 102.638 210.513 100.495C222.146 94.1437 226.846 83.7223 227.954 71.2199C228.121 69.3054 227.921 67.341 225.896 66.3338ZM124.506 178.855C107.098 165.187 98.6565 160.684 95.1732 160.876C91.9066 161.075 92.4983 164.796 93.215 167.227C93.9649 169.624 94.9399 171.272 96.3066 173.378C97.2565 174.768 97.9065 176.841 95.3649 178.397C89.7567 181.86 80.0152 177.232 79.5569 177.007C68.2154 170.331 58.724 161.525 52.0491 149.48C45.5992 137.885 41.8493 125.45 41.2327 112.173C41.066 108.96 42.0076 107.828 45.2076 107.245C49.4084 106.442 53.7126 106.333 57.949 106.921C75.7153 109.518 90.8317 117.45 103.515 130.011C110.748 137.169 116.223 145.718 121.864 154.075C127.864 162.948 134.314 171.405 142.531 178.331C145.431 180.761 147.739 182.609 149.955 183.966C143.272 184.715 132.123 184.881 124.506 178.855ZM132.839 125.25C132.838 124.836 132.937 124.429 133.129 124.062C133.32 123.696 133.598 123.381 133.939 123.146C134.279 122.911 134.672 122.762 135.083 122.712C135.494 122.662 135.911 122.714 136.297 122.861C136.79 123.037 137.216 123.363 137.515 123.793C137.813 124.223 137.971 124.735 137.964 125.258C137.965 125.596 137.899 125.931 137.769 126.243C137.64 126.555 137.449 126.839 137.208 127.076C136.968 127.314 136.683 127.502 136.369 127.628C136.055 127.755 135.719 127.818 135.381 127.813C135.045 127.815 134.712 127.749 134.402 127.62C134.092 127.491 133.811 127.302 133.575 127.063C133.339 126.824 133.153 126.541 133.028 126.23C132.903 125.918 132.834 125.585 132.839 125.25ZM158.755 138.535C157.089 139.209 155.43 139.791 153.839 139.866C151.444 139.95 149.095 139.203 147.189 137.752C144.906 135.838 143.272 134.772 142.589 131.443C142.353 129.816 142.398 128.16 142.722 126.548C143.306 123.826 142.656 122.078 140.731 120.497C139.172 119.198 137.181 118.84 134.997 118.84C134.25 118.797 133.524 118.574 132.881 118.191C131.964 117.742 131.214 116.61 131.931 115.211C132.164 114.762 133.264 113.663 133.531 113.463C136.497 111.782 139.922 112.331 143.081 113.596C146.014 114.795 148.231 116.993 151.422 120.106C154.68 123.86 155.272 124.9 157.13 127.714C158.597 129.919 159.93 132.183 160.839 134.772C161.397 136.395 160.68 137.719 158.755 138.535Z" fill="white"/>
</svg>
