<svg width="256" height="256" viewBox="0 0 256 256" fill="none" xmlns="http://www.w3.org/2000/svg">
<rect width="256" height="256" fill="#242932"/>
<g clip-path="url(#clip0_74_444)">
<path d="M213.053 109.695C215.286 102.973 216.058 95.8516 215.318 88.8074C214.578 81.7633 212.343 74.958 208.763 68.8462C197.87 49.8916 175.977 40.1415 154.596 44.7231C148.675 38.1399 141.127 33.2299 132.708 30.4861C124.289 27.7423 115.295 27.2613 106.632 29.0914C97.9678 30.9216 89.9381 34.9985 83.3492 40.9126C76.7602 46.8268 71.8438 54.37 69.0938 62.7846C62.1514 64.2079 55.5929 67.0961 49.8565 71.2561C44.12 75.4161 39.3378 80.7522 35.8294 86.9077C24.8182 105.832 27.3182 129.703 42.0106 145.938C39.7697 152.657 38.9897 159.777 39.7229 166.821C40.4561 173.866 42.6855 180.672 46.2619 186.786C57.1685 205.748 79.0754 215.497 100.468 210.909C105.172 216.204 110.951 220.435 117.42 223.319C123.89 226.203 130.9 227.675 137.983 227.635C159.899 227.655 179.315 213.512 186.009 192.65C192.951 191.224 199.508 188.335 205.244 184.175C210.98 180.016 215.763 174.681 219.273 168.527C230.151 149.636 227.641 125.895 213.053 109.695ZM137.983 214.569C129.236 214.583 120.762 211.518 114.049 205.912L115.23 205.242L154.989 182.3C155.978 181.72 156.799 180.892 157.372 179.899C157.945 178.905 158.25 177.78 158.257 176.633V120.595L175.066 130.315C175.234 130.4 175.351 130.561 175.381 130.748V177.184C175.338 197.813 158.619 214.526 137.983 214.569ZM57.5994 180.254C53.2127 172.681 51.6376 163.804 53.151 155.185L54.3314 155.894L94.1302 178.837C95.115 179.415 96.236 179.719 97.3778 179.719C98.5195 179.719 99.6406 179.415 100.625 178.837L149.242 150.818V170.218C149.237 170.319 149.21 170.417 149.162 170.506C149.115 170.594 149.047 170.671 148.966 170.73L108.696 193.948C90.7999 204.255 67.9365 198.126 57.5994 180.254ZM47.1276 93.6769C51.5451 86.0556 58.5176 80.2426 66.8108 77.2669V124.49C66.796 125.631 67.0876 126.755 67.6554 127.745C68.2232 128.735 69.0462 129.554 70.0387 130.118L118.419 158.019L101.609 167.739C101.519 167.787 101.417 167.812 101.314 167.812C101.212 167.812 101.11 167.787 101.019 167.739L60.8273 144.562C42.967 134.212 36.842 111.374 47.1276 93.4808V93.6769ZM185.222 125.75L136.684 97.5731L153.454 87.8923C153.545 87.8441 153.647 87.8189 153.75 87.8189C153.853 87.8189 153.954 87.8441 154.045 87.8923L194.237 111.111C200.383 114.656 205.393 119.875 208.682 126.159C211.971 132.444 213.405 139.534 212.814 146.602C212.224 153.67 209.635 160.424 205.348 166.077C201.062 171.729 195.256 176.045 188.608 178.522V131.298C188.573 130.16 188.243 129.049 187.649 128.076C187.056 127.104 186.219 126.302 185.222 125.75ZM201.952 100.604L200.771 99.8946L161.051 76.7554C160.061 76.1743 158.933 75.8679 157.784 75.8679C156.636 75.8679 155.508 76.1743 154.517 76.7554L105.939 104.775V85.3746C105.929 85.276 105.946 85.1766 105.988 85.0866C106.029 84.9966 106.094 84.9194 106.176 84.8631L146.368 61.6839C152.527 58.1364 159.57 56.4156 166.673 56.7227C173.775 57.0298 180.643 59.3522 186.474 63.4182C192.304 67.4842 196.856 73.1257 199.597 79.6829C202.338 86.2401 203.154 93.442 201.951 100.446L201.952 100.604ZM96.768 134.998L79.9588 125.317C79.8748 125.266 79.803 125.198 79.7484 125.116C79.6939 125.034 79.658 124.942 79.6433 124.845V78.5269C79.6526 71.4215 81.6852 64.4655 85.5033 58.4722C89.3215 52.479 94.7674 47.6962 101.204 44.683C107.641 41.6699 114.803 40.5509 121.853 41.4569C128.903 42.3629 135.549 45.2564 141.014 49.7992L139.833 50.4685L100.074 73.4108C99.0852 73.9913 98.264 74.8189 97.6912 75.8123C97.1184 76.8058 96.8138 77.9311 96.8072 79.0777L96.768 134.998ZM105.9 115.321L127.552 102.846L149.242 115.322V140.271L127.63 152.746L105.94 140.271L105.9 115.321Z" fill="white"/>
</g>
<defs>
<clipPath id="clip0_74_444">
<rect width="197" height="200" fill="white" transform="translate(29 28)"/>
</clipPath>
</defs>
</svg>
